solid Exported from Blender-2.91.0
facet normal -0.098018 -0.995185 0.000000
outer loop
vertex -5.000001 2.500000 126.999947
vertex -4.512275 2.451963 126.999947
vertex -4.512275 2.451963 141.928467
endloop
endfacet
facet normal -0.098018 -0.995185 0.000000
outer loop
vertex -5.000001 2.500000 126.999947
vertex -4.512275 2.451963 141.928467
vertex -5.000001 2.500000 141.928467
endloop
endfacet
facet normal -0.290284 -0.956940 0.000000
outer loop
vertex -4.512275 2.451963 126.999947
vertex -4.043292 2.309699 126.999947
vertex -4.043292 2.309699 141.928467
endloop
endfacet
facet normal -0.290284 -0.956940 0.000000
outer loop
vertex -4.512275 2.451963 126.999947
vertex -4.043292 2.309699 141.928467
vertex -4.512275 2.451963 141.928467
endloop
endfacet
facet normal -0.471396 -0.881921 0.000000
outer loop
vertex -4.043292 2.309699 126.999947
vertex -3.611075 2.078674 126.999947
vertex -3.611075 2.078674 141.928467
endloop
endfacet
facet normal -0.471397 -0.881921 0.000000
outer loop
vertex -4.043292 2.309699 126.999947
vertex -3.611075 2.078674 141.928467
vertex -4.043292 2.309699 141.928467
endloop
endfacet
facet normal -0.634393 -0.773011 0.000000
outer loop
vertex -3.611075 2.078674 126.999947
vertex -3.232234 1.767767 126.999947
vertex -3.232234 1.767767 141.928467
endloop
endfacet
facet normal -0.634394 -0.773010 0.000000
outer loop
vertex -3.611075 2.078674 126.999947
vertex -3.232234 1.767767 141.928467
vertex -3.611075 2.078674 141.928467
endloop
endfacet
facet normal -0.773010 -0.634394 0.000000
outer loop
vertex -3.232234 1.767767 126.999947
vertex -2.921327 1.388926 126.999947
vertex -2.921327 1.388926 141.928467
endloop
endfacet
facet normal -0.773011 -0.634393 0.000000
outer loop
vertex -3.232234 1.767767 126.999947
vertex -2.921327 1.388926 141.928467
vertex -3.232234 1.767767 141.928467
endloop
endfacet
facet normal -0.881921 -0.471396 0.000000
outer loop
vertex -2.921327 1.388926 126.999947
vertex -2.690302 0.956709 126.999947
vertex -2.690302 0.956709 141.928467
endloop
endfacet
facet normal -0.881921 -0.471397 0.000000
outer loop
vertex -2.921327 1.388926 126.999947
vertex -2.690302 0.956709 141.928467
vertex -2.921327 1.388926 141.928467
endloop
endfacet
facet normal -0.956940 -0.290284 0.000000
outer loop
vertex -2.690302 0.956709 126.999947
vertex -2.548038 0.487726 126.999947
vertex -2.548038 0.487726 141.928467
endloop
endfacet
facet normal -0.956940 -0.290286 0.000000
outer loop
vertex -2.690302 0.956709 126.999947
vertex -2.548038 0.487726 141.928467
vertex -2.690302 0.956709 141.928467
endloop
endfacet
facet normal -0.995185 -0.098017 0.000000
outer loop
vertex -2.548038 0.487726 126.999947
vertex -2.500001 0.000000 126.999947
vertex -2.500001 0.000000 141.928467
endloop
endfacet
facet normal -0.995185 -0.098017 0.000000
outer loop
vertex -2.548038 0.487726 126.999947
vertex -2.500001 0.000000 141.928467
vertex -2.548038 0.487726 141.928467
endloop
endfacet
facet normal -0.995185 0.098017 0.000000
outer loop
vertex -2.500001 0.000000 126.999947
vertex -2.548037 -0.487726 126.999947
vertex -2.548037 -0.487726 141.928467
endloop
endfacet
facet normal -0.995185 0.098016 0.000000
outer loop
vertex -2.500001 0.000000 126.999947
vertex -2.548037 -0.487726 141.928467
vertex -2.500001 0.000000 141.928467
endloop
endfacet
facet normal -0.956940 0.290285 0.000000
outer loop
vertex -2.548037 -0.487726 126.999947
vertex -2.690302 -0.956708 126.999947
vertex -2.690302 -0.956708 141.928467
endloop
endfacet
facet normal -0.956940 0.290284 0.000000
outer loop
vertex -2.548037 -0.487726 126.999947
vertex -2.690302 -0.956708 141.928467
vertex -2.548037 -0.487726 141.928467
endloop
endfacet
facet normal -0.881921 0.471397 0.000000
outer loop
vertex -2.690302 -0.956708 126.999947
vertex -2.921327 -1.388926 126.999947
vertex -2.921327 -1.388926 141.928467
endloop
endfacet
facet normal -0.881921 0.471397 0.000000
outer loop
vertex -2.690302 -0.956708 126.999947
vertex -2.921327 -1.388926 141.928467
vertex -2.690302 -0.956708 141.928467
endloop
endfacet
facet normal -0.773010 0.634394 0.000000
outer loop
vertex -2.921327 -1.388926 126.999947
vertex -3.232234 -1.767767 126.999947
vertex -3.232234 -1.767767 141.928467
endloop
endfacet
facet normal -0.773010 0.634393 0.000000
outer loop
vertex -2.921327 -1.388926 126.999947
vertex -3.232234 -1.767767 141.928467
vertex -2.921327 -1.388926 141.928467
endloop
endfacet
facet normal -0.634394 0.773010 0.000000
outer loop
vertex -3.232234 -1.767767 126.999947
vertex -3.611075 -2.078674 126.999947
vertex -3.611075 -2.078674 141.928467
endloop
endfacet
facet normal -0.634394 0.773010 0.000000
outer loop
vertex -3.232234 -1.767767 126.999947
vertex -3.611075 -2.078674 141.928467
vertex -3.232234 -1.767767 141.928467
endloop
endfacet
facet normal -0.471397 0.881921 0.000000
outer loop
vertex -3.611075 -2.078674 126.999947
vertex -4.043293 -2.309699 126.999947
vertex -4.043292 -2.309699 141.928467
endloop
endfacet
facet normal -0.471397 0.881921 0.000000
outer loop
vertex -3.611075 -2.078674 126.999947
vertex -4.043292 -2.309699 141.928467
vertex -3.611075 -2.078674 141.928467
endloop
endfacet
facet normal -0.290284 0.956940 0.000000
outer loop
vertex -4.043293 -2.309699 126.999947
vertex -4.512276 -2.451963 126.999947
vertex -4.512276 -2.451963 141.928467
endloop
endfacet
facet normal -0.290284 0.956941 0.000000
outer loop
vertex -4.043293 -2.309699 126.999947
vertex -4.512276 -2.451963 141.928467
vertex -4.043292 -2.309699 141.928467
endloop
endfacet
facet normal -0.098017 0.995185 0.000000
outer loop
vertex -4.512276 -2.451963 126.999947
vertex -5.000002 -2.500000 126.999947
vertex -5.000002 -2.500000 141.928467
endloop
endfacet
facet normal -0.098017 0.995185 0.000000
outer loop
vertex -4.512276 -2.451963 126.999947
vertex -5.000002 -2.500000 141.928467
vertex -4.512276 -2.451963 141.928467
endloop
endfacet
facet normal 0.098018 0.995185 0.000000
outer loop
vertex -5.000002 -2.500000 126.999947
vertex -5.487728 -2.451963 126.999947
vertex -5.487728 -2.451963 141.928467
endloop
endfacet
facet normal 0.098018 0.995185 0.000000
outer loop
vertex -5.000002 -2.500000 126.999947
vertex -5.487728 -2.451963 141.928467
vertex -5.000002 -2.500000 141.928467
endloop
endfacet
facet normal 0.290285 0.956940 0.000000
outer loop
vertex -5.487728 -2.451963 126.999947
vertex -5.956710 -2.309698 126.999947
vertex -5.956710 -2.309698 141.928467
endloop
endfacet
facet normal 0.290286 0.956940 0.000000
outer loop
vertex -5.487728 -2.451963 126.999947
vertex -5.956710 -2.309698 141.928467
vertex -5.487728 -2.451963 141.928467
endloop
endfacet
facet normal 0.471396 0.881922 0.000000
outer loop
vertex -5.956710 -2.309698 126.999947
vertex -6.388928 -2.078673 126.999947
vertex -6.388928 -2.078673 141.928467
endloop
endfacet
facet normal 0.471397 0.881921 0.000000
outer loop
vertex -5.956710 -2.309698 126.999947
vertex -6.388928 -2.078673 141.928467
vertex -5.956710 -2.309698 141.928467
endloop
endfacet
facet normal 0.634393 0.773010 0.000000
outer loop
vertex -6.388928 -2.078673 126.999947
vertex -6.767769 -1.767766 126.999947
vertex -6.767769 -1.767766 141.928467
endloop
endfacet
facet normal 0.634394 0.773010 0.000000
outer loop
vertex -6.388928 -2.078673 126.999947
vertex -6.767769 -1.767766 141.928467
vertex -6.388928 -2.078673 141.928467
endloop
endfacet
facet normal 0.773010 0.634394 0.000000
outer loop
vertex -6.767769 -1.767766 126.999947
vertex -7.078676 -1.388924 126.999947
vertex -7.078676 -1.388924 141.928467
endloop
endfacet
facet normal 0.773012 0.634392 0.000000
outer loop
vertex -6.767769 -1.767766 126.999947
vertex -7.078676 -1.388924 141.928467
vertex -6.767769 -1.767766 141.928467
endloop
endfacet
facet normal 0.881922 0.471396 0.000000
outer loop
vertex -7.078676 -1.388924 126.999947
vertex -7.309700 -0.956707 126.999947
vertex -7.309700 -0.956707 141.928467
endloop
endfacet
facet normal 0.881923 0.471394 0.000000
outer loop
vertex -7.078676 -1.388924 126.999947
vertex -7.309700 -0.956707 141.928467
vertex -7.078676 -1.388924 141.928467
endloop
endfacet
facet normal 0.956940 0.290284 0.000000
outer loop
vertex -7.309700 -0.956707 126.999947
vertex -7.451964 -0.487724 126.999947
vertex -7.451964 -0.487724 141.928467
endloop
endfacet
facet normal 0.956941 0.290284 0.000000
outer loop
vertex -7.309700 -0.956707 126.999947
vertex -7.451964 -0.487724 141.928467
vertex -7.309700 -0.956707 141.928467
endloop
endfacet
facet normal 0.995185 0.098017 0.000000
outer loop
vertex -7.451964 -0.487724 126.999947
vertex -7.500001 0.000002 126.999947
vertex -7.500001 0.000002 141.928467
endloop
endfacet
facet normal 0.995185 0.098017 0.000000
outer loop
vertex -7.451964 -0.487724 126.999947
vertex -7.500001 0.000002 141.928467
vertex -7.451964 -0.487724 141.928467
endloop
endfacet
facet normal 0.995184 -0.098021 0.000000
outer loop
vertex -7.500001 0.000002 126.999947
vertex -7.451963 0.487728 126.999947
vertex -7.451963 0.487728 141.928467
endloop
endfacet
facet normal 0.995185 -0.098017 0.000000
outer loop
vertex -7.500001 0.000002 126.999947
vertex -7.451963 0.487728 141.928467
vertex -7.500001 0.000002 141.928467
endloop
endfacet
facet normal 0.956940 -0.290284 0.000000
outer loop
vertex -7.451963 0.487728 126.999947
vertex -7.309699 0.956711 126.999947
vertex -7.309699 0.956711 141.928467
endloop
endfacet
facet normal 0.956940 -0.290287 0.000000
outer loop
vertex -7.451963 0.487728 126.999947
vertex -7.309699 0.956711 141.928467
vertex -7.451963 0.487728 141.928467
endloop
endfacet
facet normal 0.881921 -0.471398 0.000000
outer loop
vertex -7.309699 0.956711 126.999947
vertex -7.078673 1.388928 126.999947
vertex -7.078673 1.388928 141.928467
endloop
endfacet
facet normal 0.881921 -0.471397 0.000000
outer loop
vertex -7.309699 0.956711 126.999947
vertex -7.078673 1.388928 141.928467
vertex -7.309699 0.956711 141.928467
endloop
endfacet
facet normal 0.773009 -0.634396 0.000000
outer loop
vertex -7.078673 1.388928 126.999947
vertex -6.767766 1.767769 126.999947
vertex -6.767766 1.767769 141.928467
endloop
endfacet
facet normal 0.773010 -0.634394 0.000000
outer loop
vertex -7.078673 1.388928 126.999947
vertex -6.767766 1.767769 141.928467
vertex -7.078673 1.388928 141.928467
endloop
endfacet
facet normal 0.634393 -0.773011 0.000000
outer loop
vertex -6.767766 1.767769 126.999947
vertex -6.388924 2.078676 126.999947
vertex -6.388924 2.078676 141.928467
endloop
endfacet
facet normal 0.634393 -0.773011 0.000000
outer loop
vertex -6.767766 1.767769 126.999947
vertex -6.388924 2.078676 141.928467
vertex -6.767766 1.767769 141.928467
endloop
endfacet
facet normal 0.471395 -0.881922 0.000000
outer loop
vertex -6.388924 2.078676 126.999947
vertex -5.956706 2.309700 126.999947
vertex -5.956706 2.309700 141.928467
endloop
endfacet
facet normal 0.471396 -0.881921 0.000000
outer loop
vertex -6.388924 2.078676 126.999947
vertex -5.956706 2.309700 141.928467
vertex -6.388924 2.078676 141.928467
endloop
endfacet
facet normal 0.290283 -0.956941 0.000000
outer loop
vertex -5.956706 2.309700 126.999947
vertex -5.487723 2.451964 126.999947
vertex -5.487723 2.451964 141.928467
endloop
endfacet
facet normal 0.290283 -0.956941 0.000000
outer loop
vertex -5.956706 2.309700 126.999947
vertex -5.487723 2.451964 141.928467
vertex -5.956706 2.309700 141.928467
endloop
endfacet
facet normal 0.098017 -0.995185 0.000000
outer loop
vertex -5.487723 2.451964 126.999947
vertex -5.000001 2.500000 126.999947
vertex -5.000001 2.500000 141.928467
endloop
endfacet
facet normal 0.098017 -0.995185 0.000000
outer loop
vertex -5.487723 2.451964 126.999947
vertex -5.000001 2.500000 141.928467
vertex -5.487723 2.451964 141.928467
endloop
endfacet
facet normal 0.878102 -0.478473 0.000000
outer loop
vertex 15.000001 -11.000000 111.928467
vertex 17.289366 -6.798516 111.928467
vertex 17.289366 -6.798516 141.928467
endloop
endfacet
facet normal 0.878102 -0.478473 0.000000
outer loop
vertex 15.000001 -11.000000 111.928467
vertex 17.289366 -6.798516 141.928467
vertex 15.000001 -11.000000 141.928467
endloop
endfacet
facet normal 0.000000 0.000000 1.000000
outer loop
vertex -5.000001 2.500000 141.928467
vertex 0.000000 15.798516 141.928467
vertex -2.710635 15.798516 141.928467
endloop
endfacet
facet normal 0.000003 0.000000 1.000000
outer loop
vertex -2.710635 15.798516 141.928467
vertex -17.289366 -6.798516 141.928467
vertex -15.000001 -11.000000 141.928467
endloop
endfacet
facet normal 0.000000 0.000000 1.000000
outer loop
vertex -15.000001 -11.000000 141.928467
vertex 0.000000 -11.000000 141.928467
vertex -5.000002 -2.500000 141.928467
endloop
endfacet
facet normal -0.000033 0.000000 1.000000
outer loop
vertex -15.000001 -11.000000 141.928467
vertex -5.000002 -2.500000 141.928467
vertex -5.487728 -2.451963 141.928467
endloop
endfacet
facet normal -0.000038 0.000000 1.000000
outer loop
vertex -5.487723 2.451964 141.928467
vertex -5.000001 2.500000 141.928467
vertex -2.710635 15.798516 141.928467
endloop
endfacet
facet normal 0.000000 0.000000 1.000000
outer loop
vertex -5.956706 2.309700 141.928467
vertex -5.487723 2.451964 141.928467
vertex -2.710635 15.798516 141.928467
endloop
endfacet
facet normal 0.000036 0.000000 1.000000
outer loop
vertex -15.000001 -11.000000 141.928467
vertex -5.487728 -2.451963 141.928467
vertex -5.956710 -2.309698 141.928467
endloop
endfacet
facet normal -0.000027 0.000000 1.000000
outer loop
vertex -15.000001 -11.000000 141.928467
vertex -5.956710 -2.309698 141.928467
vertex -6.388928 -2.078673 141.928467
endloop
endfacet
facet normal 0.000000 0.000000 1.000000
outer loop
vertex -6.388924 2.078676 141.928467
vertex -5.956706 2.309700 141.928467
vertex -2.710635 15.798516 141.928467
endloop
endfacet
facet normal -0.000060 0.000000 1.000000
outer loop
vertex -6.767766 1.767769 141.928467
vertex -6.388924 2.078676 141.928467
vertex -2.710635 15.798516 141.928467
endloop
endfacet
facet normal -0.000006 0.000000 1.000000
outer loop
vertex -15.000001 -11.000000 141.928467
vertex -6.388928 -2.078673 141.928467
vertex -6.767769 -1.767766 141.928467
endloop
endfacet
facet normal 0.000001 0.000000 1.000000
outer loop
vertex -15.000001 -11.000000 141.928467
vertex -6.767769 -1.767766 141.928467
vertex -7.078676 -1.388924 141.928467
endloop
endfacet
facet normal 0.000086 0.000000 1.000000
outer loop
vertex -7.078673 1.388928 141.928467
vertex -6.767766 1.767769 141.928467
vertex -2.710635 15.798516 141.928467
endloop
endfacet
facet normal 0.000000 0.000000 1.000000
outer loop
vertex -7.309699 0.956711 141.928467
vertex -7.078673 1.388928 141.928467
vertex -2.710635 15.798516 141.928467
endloop
endfacet
facet normal 0.000011 0.000000 1.000000
outer loop
vertex -15.000001 -11.000000 141.928467
vertex -7.078676 -1.388924 141.928467
vertex -7.309700 -0.956707 141.928467
endloop
endfacet
facet normal 0.000033 0.000000 1.000000
outer loop
vertex -15.000001 -11.000000 141.928467
vertex -7.309700 -0.956707 141.928467
vertex -7.451964 -0.487724 141.928467
endloop
endfacet
facet normal 0.000000 0.000000 1.000000
outer loop
vertex -7.309699 0.956711 141.928467
vertex -2.710635 15.798516 141.928467
vertex -15.000001 -11.000000 141.928467
endloop
endfacet
facet normal 0.000000 0.000000 1.000000
outer loop
vertex -7.451963 0.487728 141.928467
vertex -7.309699 0.956711 141.928467
vertex -15.000001 -11.000000 141.928467
endloop
endfacet
facet normal -0.000022 0.000000 1.000000
outer loop
vertex -15.000001 -11.000000 141.928467
vertex -7.451964 -0.487724 141.928467
vertex -7.500001 0.000002 141.928467
endloop
endfacet
facet normal -0.000024 0.000000 1.000000
outer loop
vertex -15.000001 -11.000000 141.928467
vertex -7.500001 0.000002 141.928467
vertex -7.451963 0.487728 141.928467
endloop
endfacet
facet normal 0.000000 0.000000 -1.000000
outer loop
vertex 17.289366 -6.798516 111.928467
vertex 15.000001 -11.000000 111.928467
vertex 0.000000 -11.000000 111.928467
endloop
endfacet
facet normal 0.000003 0.000000 -1.000000
outer loop
vertex 0.000000 -11.000000 111.928467
vertex -0.000003 -9.750000 111.928467
vertex 1.902128 -9.562657 111.928467
endloop
endfacet
facet normal 0.000000 0.000000 -1.000000
outer loop
vertex 0.000000 -11.000000 111.928467
vertex 1.902128 -9.562657 111.928467
vertex 3.731162 -9.007827 111.928467
endloop
endfacet
facet normal 0.000000 0.000000 -1.000000
outer loop
vertex 0.000000 9.750000 111.928467
vertex -0.000000 15.798516 111.928467
vertex 2.710635 15.798516 111.928467
endloop
endfacet
facet normal 0.000000 0.000000 -1.000000
outer loop
vertex 1.902131 9.562656 111.928467
vertex 0.000000 9.750000 111.928467
vertex 2.710635 15.798516 111.928467
endloop
endfacet
facet normal 0.000000 0.000000 -1.000000
outer loop
vertex 17.289366 -6.798516 111.928467
vertex 0.000000 -11.000000 111.928467
vertex 3.731162 -9.007827 111.928467
endloop
endfacet
facet normal 0.000000 0.000000 -1.000000
outer loop
vertex 17.289366 -6.798516 111.928467
vertex 3.731162 -9.007827 111.928467
vertex 5.416810 -8.106830 111.928467
endloop
endfacet
facet normal 0.000010 0.000000 -1.000000
outer loop
vertex 3.731164 9.007826 111.928467
vertex 1.902131 9.562656 111.928467
vertex 2.710635 15.798516 111.928467
endloop
endfacet
facet normal 0.000000 0.000000 -1.000000
outer loop
vertex 5.416810 8.106829 111.928467
vertex 3.731164 9.007826 111.928467
vertex 2.710635 15.798516 111.928467
endloop
endfacet
facet normal -0.000002 0.000000 -1.000000
outer loop
vertex 17.289366 -6.798516 111.928467
vertex 5.416810 -8.106830 111.928467
vertex 6.894291 -6.894291 111.928467
endloop
endfacet
facet normal 0.000000 0.000000 -1.000000
outer loop
vertex 17.289366 -6.798516 111.928467
vertex 6.894291 -6.894291 111.928467
vertex 8.106830 -5.416810 111.928467
endloop
endfacet
facet normal 0.000000 0.000000 -1.000000
outer loop
vertex 6.894291 6.894291 111.928467
vertex 5.416810 8.106829 111.928467
vertex 2.710635 15.798516 111.928467
endloop
endfacet
facet normal -0.000026 0.000000 -1.000000
outer loop
vertex 8.106830 5.416810 111.928467
vertex 6.894291 6.894291 111.928467
vertex 2.710635 15.798516 111.928467
endloop
endfacet
facet normal -0.000002 0.000000 -1.000000
outer loop
vertex 17.289366 -6.798516 111.928467
vertex 8.106830 -5.416810 111.928467
vertex 9.007826 -3.731162 111.928467
endloop
endfacet
facet normal -0.000002 0.000000 -1.000000
outer loop
vertex 17.289366 -6.798516 111.928467
vertex 9.007826 -3.731162 111.928467
vertex 9.562657 -1.902130 111.928467
endloop
endfacet
facet normal 0.000017 0.000000 -1.000000
outer loop
vertex 8.106830 5.416810 111.928467
vertex 2.710635 15.798516 111.928467
vertex 17.289366 -6.798516 111.928467
endloop
endfacet
facet normal 0.000055 0.000000 -1.000000
outer loop
vertex 9.007826 3.731163 111.928467
vertex 8.106830 5.416810 111.928467
vertex 17.289366 -6.798516 111.928467
endloop
endfacet
facet normal 0.000008 0.000000 -1.000000
outer loop
vertex 17.289366 -6.798516 111.928467
vertex 9.562657 -1.902130 111.928467
vertex 9.750000 0.000001 111.928467
endloop
endfacet
facet normal 0.000000 0.000000 -1.000000
outer loop
vertex 9.562656 1.902131 111.928467
vertex 9.007826 3.731163 111.928467
vertex 17.289366 -6.798516 111.928467
endloop
endfacet
facet normal -0.000009 0.000000 -1.000000
outer loop
vertex 9.750000 0.000001 111.928467
vertex 9.562656 1.902131 111.928467
vertex 17.289366 -6.798516 111.928467
endloop
endfacet
facet normal 0.000000 -1.000000 0.000000
outer loop
vertex 0.000000 -11.000000 111.928467
vertex 15.000001 -11.000000 111.928467
vertex 15.000001 -11.000000 141.928467
endloop
endfacet
facet normal 0.000000 -1.000000 0.000000
outer loop
vertex 0.000000 -11.000000 111.928467
vertex 15.000001 -11.000000 141.928467
vertex 0.000000 -11.000000 141.928467
endloop
endfacet
facet normal -0.840297 0.542127 0.000000
outer loop
vertex -17.289366 -6.798516 111.928467
vertex -17.289366 -6.798516 141.928467
vertex -2.710635 15.798516 141.928467
endloop
endfacet
facet normal -0.840297 0.542127 0.000000
outer loop
vertex -17.289366 -6.798516 111.928467
vertex -2.710635 15.798516 141.928467
vertex -2.710635 15.798516 111.928467
endloop
endfacet
facet normal -0.000021 0.000000 -1.000000
outer loop
vertex 0.000000 9.750000 126.999947
vertex 1.902131 9.562656 126.999947
vertex 3.731164 9.007826 126.999947
endloop
endfacet
facet normal 0.000000 0.000000 -1.000000
outer loop
vertex 3.731164 9.007826 126.999947
vertex 5.416810 8.106829 126.999947
vertex 6.894291 6.894291 126.999947
endloop
endfacet
facet normal 0.000043 0.000000 -1.000000
outer loop
vertex 6.894291 6.894291 126.999947
vertex 8.106830 5.416810 126.999947
vertex 9.007826 3.731164 126.999947
endloop
endfacet
facet normal -0.000043 0.000000 -1.000000
outer loop
vertex 9.007826 3.731164 126.999947
vertex 9.562656 1.902131 126.999947
vertex 9.750000 0.000001 126.999947
endloop
endfacet
facet normal -0.000043 0.000000 -1.000000
outer loop
vertex 9.750000 0.000001 126.999947
vertex 9.562657 -1.902130 126.999947
vertex 9.007826 -3.731162 126.999947
endloop
endfacet
facet normal 0.000043 0.000000 -1.000000
outer loop
vertex 9.007826 -3.731162 126.999947
vertex 8.106830 -5.416810 126.999947
vertex 6.894291 -6.894291 126.999947
endloop
endfacet
facet normal 0.000000 0.000000 -1.000000
outer loop
vertex 6.894291 -6.894291 126.999947
vertex 5.416810 -8.106830 126.999947
vertex 3.731162 -9.007827 126.999947
endloop
endfacet
facet normal -0.000016 0.000000 -1.000000
outer loop
vertex 3.731162 -9.007827 126.999947
vertex 1.902128 -9.562657 126.999947
vertex -0.000003 -9.750000 126.999947
endloop
endfacet
facet normal -0.000014 0.000000 -1.000000
outer loop
vertex -0.000003 -9.750000 126.999947
vertex -5.000002 -2.500000 126.999947
vertex -4.512276 -2.451963 126.999947
endloop
endfacet
facet normal 0.000014 0.000000 -1.000000
outer loop
vertex -0.000003 -9.750000 126.999947
vertex -4.512276 -2.451963 126.999947
vertex -4.043293 -2.309699 126.999947
endloop
endfacet
facet normal 0.000003 0.000000 -1.000000
outer loop
vertex 6.894291 -6.894291 126.999947
vertex 3.731162 -9.007827 126.999947
vertex -0.000003 -9.750000 126.999947
endloop
endfacet
facet normal -0.000011 0.000000 -1.000000
outer loop
vertex 9.750000 0.000001 126.999947
vertex 9.007826 -3.731162 126.999947
vertex 6.894291 -6.894291 126.999947
endloop
endfacet
facet normal 0.000011 0.000000 -1.000000
outer loop
vertex 6.894291 6.894291 126.999947
vertex 9.007826 3.731164 126.999947
vertex 9.750000 0.000001 126.999947
endloop
endfacet
facet normal 0.000000 0.000000 -1.000000
outer loop
vertex 0.000000 9.750000 126.999947
vertex 3.731164 9.007826 126.999947
vertex 6.894291 6.894291 126.999947
endloop
endfacet
facet normal -0.000032 0.000000 -1.000000
outer loop
vertex -4.512275 2.451963 126.999947
vertex -5.000001 2.500000 126.999947
vertex 0.000000 9.750000 126.999947
endloop
endfacet
facet normal 0.000000 0.000000 -1.000000
outer loop
vertex -4.043292 2.309699 126.999947
vertex -4.512275 2.451963 126.999947
vertex 0.000000 9.750000 126.999947
endloop
endfacet
facet normal 0.000000 0.000000 -1.000000
outer loop
vertex 0.000000 9.750000 126.999947
vertex 6.894291 6.894291 126.999947
vertex 9.750000 0.000001 126.999947
endloop
endfacet
facet normal -0.000002 0.000000 -1.000000
outer loop
vertex 9.750000 0.000001 126.999947
vertex 6.894291 -6.894291 126.999947
vertex -0.000003 -9.750000 126.999947
endloop
endfacet
facet normal -0.000035 0.000000 -1.000000
outer loop
vertex -0.000003 -9.750000 126.999947
vertex -4.043293 -2.309699 126.999947
vertex -3.611075 -2.078674 126.999947
endloop
endfacet
facet normal 0.000006 0.000000 -1.000000
outer loop
vertex -0.000003 -9.750000 126.999947
vertex -3.611075 -2.078674 126.999947
vertex -3.232234 -1.767767 126.999947
endloop
endfacet
facet normal 0.000000 0.000000 -1.000000
outer loop
vertex 0.000000 9.750000 126.999947
vertex 9.750000 0.000001 126.999947
vertex -0.000003 -9.750000 126.999947
endloop
endfacet
facet normal -0.000029 0.000000 -1.000000
outer loop
vertex -3.611075 2.078674 126.999947
vertex -4.043292 2.309699 126.999947
vertex 0.000000 9.750000 126.999947
endloop
endfacet
facet normal 0.000030 0.000000 -1.000000
outer loop
vertex -3.232234 1.767767 126.999947
vertex -3.611075 2.078674 126.999947
vertex 0.000000 9.750000 126.999947
endloop
endfacet
facet normal -0.000025 0.000000 -1.000000
outer loop
vertex -0.000003 -9.750000 126.999947
vertex -3.232234 -1.767767 126.999947
vertex -2.921327 -1.388926 126.999947
endloop
endfacet
facet normal 0.000093 0.000000 -1.000000
outer loop
vertex -0.000003 -9.750000 126.999947
vertex -2.921327 -1.388926 126.999947
vertex -2.690302 -0.956708 126.999947
endloop
endfacet
facet normal -0.000033 0.000000 -1.000000
outer loop
vertex -2.921327 1.388926 126.999947
vertex -3.232234 1.767767 126.999947
vertex 0.000000 9.750000 126.999947
endloop
endfacet
facet normal 0.000076 0.000000 -1.000000
outer loop
vertex -2.690302 0.956709 126.999947
vertex -2.921327 1.388926 126.999947
vertex 0.000000 9.750000 126.999947
endloop
endfacet
facet normal -0.000085 0.000000 -1.000000
outer loop
vertex -0.000003 -9.750000 126.999947
vertex -2.690302 -0.956708 126.999947
vertex -2.548037 -0.487726 126.999947
endloop
endfacet
facet normal 0.000023 0.000000 -1.000000
outer loop
vertex -0.000003 -9.750000 126.999947
vertex -2.548037 -0.487726 126.999947
vertex -2.500001 0.000000 126.999947
endloop
endfacet
facet normal -0.000097 0.000000 -1.000000
outer loop
vertex -2.548038 0.487726 126.999947
vertex -2.690302 0.956709 126.999947
vertex 0.000000 9.750000 126.999947
endloop
endfacet
facet normal 0.000041 0.000000 -1.000000
outer loop
vertex -0.000003 -9.750000 126.999947
vertex -2.500001 0.000000 126.999947
vertex -2.548038 0.487726 126.999947
endloop
endfacet
facet normal 0.000005 0.000000 -1.000000
outer loop
vertex -0.000003 -9.750000 126.999947
vertex -2.548038 0.487726 126.999947
vertex 0.000000 9.750000 126.999947
endloop
endfacet
facet normal -0.878102 -0.478473 0.000000
outer loop
vertex -15.000001 -11.000000 111.928467
vertex -15.000001 -11.000000 141.928467
vertex -17.289366 -6.798516 141.928467
endloop
endfacet
facet normal -0.878102 -0.478473 0.000000
outer loop
vertex -15.000001 -11.000000 111.928467
vertex -17.289366 -6.798516 141.928467
vertex -17.289366 -6.798516 111.928467
endloop
endfacet
facet normal 0.000000 0.000000 -1.000000
outer loop
vertex 0.000000 -11.000000 111.928467
vertex -15.000001 -11.000000 111.928467
vertex -17.289366 -6.798516 111.928467
endloop
endfacet
facet normal 0.000000 0.000000 -1.000000
outer loop
vertex -2.710635 15.798516 111.928467
vertex -0.000000 15.798516 111.928467
vertex 0.000000 9.750000 111.928467
endloop
endfacet
facet normal 0.000002 0.000000 -1.000000
outer loop
vertex -2.710635 15.798516 111.928467
vertex 0.000000 9.750000 111.928467
vertex -1.902116 9.562659 111.928467
endloop
endfacet
facet normal 0.000000 0.000000 -1.000000
outer loop
vertex -1.902135 -9.562655 111.928467
vertex -0.000003 -9.750000 111.928467
vertex 0.000000 -11.000000 111.928467
endloop
endfacet
facet normal 0.000000 0.000000 -1.000000
outer loop
vertex -3.731168 -9.007824 111.928467
vertex -1.902135 -9.562655 111.928467
vertex 0.000000 -11.000000 111.928467
endloop
endfacet
facet normal 0.000000 0.000000 -1.000000
outer loop
vertex -2.710635 15.798516 111.928467
vertex -1.902116 9.562659 111.928467
vertex -3.731150 9.007832 111.928467
endloop
endfacet
facet normal -0.000006 0.000000 -1.000000
outer loop
vertex -2.710635 15.798516 111.928467
vertex -3.731150 9.007832 111.928467
vertex -5.416799 8.106836 111.928467
endloop
endfacet
facet normal 0.000000 0.000000 -1.000000
outer loop
vertex -3.731168 -9.007824 111.928467
vertex 0.000000 -11.000000 111.928467
vertex -17.289366 -6.798516 111.928467
endloop
endfacet
facet normal 0.000000 0.000000 -1.000000
outer loop
vertex -5.416815 -8.106826 111.928467
vertex -3.731168 -9.007824 111.928467
vertex -17.289366 -6.798516 111.928467
endloop
endfacet
facet normal -0.000004 0.000000 -1.000000
outer loop
vertex -2.710635 15.798516 111.928467
vertex -5.416799 8.106836 111.928467
vertex -6.894283 6.894300 111.928467
endloop
endfacet
facet normal -0.000026 0.000000 -1.000000
outer loop
vertex -2.710635 15.798516 111.928467
vertex -6.894283 6.894300 111.928467
vertex -8.106822 5.416820 111.928467
endloop
endfacet
facet normal 0.000000 0.000000 -1.000000
outer loop
vertex -6.894296 -6.894287 111.928467
vertex -5.416815 -8.106826 111.928467
vertex -17.289366 -6.798516 111.928467
endloop
endfacet
facet normal 0.000000 0.000000 -1.000000
outer loop
vertex -8.106833 -5.416804 111.928467
vertex -6.894296 -6.894287 111.928467
vertex -17.289366 -6.798516 111.928467
endloop
endfacet
facet normal 0.000000 0.000000 -1.000000
outer loop
vertex -17.289366 -6.798516 111.928467
vertex -2.710635 15.798516 111.928467
vertex -8.106822 5.416820 111.928467
endloop
endfacet
facet normal 0.000034 0.000000 -1.000000
outer loop
vertex -17.289366 -6.798516 111.928467
vertex -8.106822 5.416820 111.928467
vertex -9.007821 3.731174 111.928467
endloop
endfacet
facet normal 0.000002 0.000000 -1.000000
outer loop
vertex -9.007830 -3.731156 111.928467
vertex -8.106833 -5.416804 111.928467
vertex -17.289366 -6.798516 111.928467
endloop
endfacet
facet normal -0.000004 0.000000 -1.000000
outer loop
vertex -9.562658 -1.902122 111.928467
vertex -9.007830 -3.731156 111.928467
vertex -17.289366 -6.798516 111.928467
endloop
endfacet
facet normal 0.000003 0.000000 -1.000000
outer loop
vertex -17.289366 -6.798516 111.928467
vertex -9.007821 3.731174 111.928467
vertex -9.562654 1.902141 111.928467
endloop
endfacet
facet normal -0.000008 0.000000 -1.000000
outer loop
vertex -9.750000 0.000009 111.928467
vertex -9.562658 -1.902122 111.928467
vertex -17.289366 -6.798516 111.928467
endloop
endfacet
facet normal -0.000002 0.000000 -1.000000
outer loop
vertex -17.289366 -6.798516 111.928467
vertex -9.562654 1.902141 111.928467
vertex -9.750000 0.000009 111.928467
endloop
endfacet
facet normal 0.840297 0.542127 0.000000
outer loop
vertex 17.289366 -6.798516 111.928467
vertex 2.710635 15.798516 111.928467
vertex 2.710635 15.798516 141.928467
endloop
endfacet
facet normal 0.840297 0.542127 0.000000
outer loop
vertex 17.289366 -6.798516 111.928467
vertex 2.710635 15.798516 141.928467
vertex 17.289366 -6.798516 141.928467
endloop
endfacet
facet normal 0.000000 0.000000 1.000000
outer loop
vertex 2.710635 15.798516 141.928467
vertex 0.000000 15.798516 141.928467
vertex -5.000001 2.500000 141.928467
endloop
endfacet
facet normal 0.000022 0.000000 1.000000
outer loop
vertex 2.710635 15.798516 141.928467
vertex -5.000001 2.500000 141.928467
vertex -4.512275 2.451963 141.928467
endloop
endfacet
facet normal -0.000004 0.000000 1.000000
outer loop
vertex 15.000001 -11.000000 141.928467
vertex 17.289366 -6.798516 141.928467
vertex 2.710635 15.798516 141.928467
endloop
endfacet
facet normal 0.000000 0.000000 1.000000
outer loop
vertex -5.000002 -2.500000 141.928467
vertex 0.000000 -11.000000 141.928467
vertex 15.000001 -11.000000 141.928467
endloop
endfacet
facet normal 0.000000 0.000000 1.000000
outer loop
vertex -4.512276 -2.451963 141.928467
vertex -5.000002 -2.500000 141.928467
vertex 15.000001 -11.000000 141.928467
endloop
endfacet
facet normal -0.000012 0.000000 1.000000
outer loop
vertex 2.710635 15.798516 141.928467
vertex -4.512275 2.451963 141.928467
vertex -4.043292 2.309699 141.928467
endloop
endfacet
facet normal 0.000012 0.000000 1.000000
outer loop
vertex 2.710635 15.798516 141.928467
vertex -4.043292 2.309699 141.928467
vertex -3.611075 2.078674 141.928467
endloop
endfacet
facet normal -0.000036 0.000000 1.000000
outer loop
vertex -4.043292 -2.309699 141.928467
vertex -4.512276 -2.451963 141.928467
vertex 15.000001 -11.000000 141.928467
endloop
endfacet
facet normal 0.000030 0.000000 1.000000
outer loop
vertex -3.611075 -2.078674 141.928467
vertex -4.043292 -2.309699 141.928467
vertex 15.000001 -11.000000 141.928467
endloop
endfacet
facet normal 0.000001 0.000000 1.000000
outer loop
vertex 15.000001 -11.000000 141.928467
vertex 2.710635 15.798516 141.928467
vertex -3.611075 2.078674 141.928467
endloop
endfacet
facet normal -0.000037 0.000000 1.000000
outer loop
vertex 15.000001 -11.000000 141.928467
vertex -3.611075 2.078674 141.928467
vertex -3.232234 1.767767 141.928467
endloop
endfacet
facet normal 0.000000 0.000000 1.000000
outer loop
vertex -3.232234 -1.767767 141.928467
vertex -3.611075 -2.078674 141.928467
vertex 15.000001 -11.000000 141.928467
endloop
endfacet
facet normal 0.000000 0.000000 1.000000
outer loop
vertex -2.921327 -1.388926 141.928467
vertex -3.232234 -1.767767 141.928467
vertex 15.000001 -11.000000 141.928467
endloop
endfacet
facet normal -0.000036 0.000000 1.000000
outer loop
vertex 15.000001 -11.000000 141.928467
vertex -3.232234 1.767767 141.928467
vertex -2.921327 1.388926 141.928467
endloop
endfacet
facet normal 0.000003 0.000000 1.000000
outer loop
vertex 15.000001 -11.000000 141.928467
vertex -2.921327 1.388926 141.928467
vertex -2.690302 0.956709 141.928467
endloop
endfacet
facet normal -0.000024 0.000000 1.000000
outer loop
vertex -2.690302 -0.956708 141.928467
vertex -2.921327 -1.388926 141.928467
vertex 15.000001 -11.000000 141.928467
endloop
endfacet
facet normal 0.000000 0.000000 1.000000
outer loop
vertex -2.548037 -0.487726 141.928467
vertex -2.690302 -0.956708 141.928467
vertex 15.000001 -11.000000 141.928467
endloop
endfacet
facet normal 0.000032 0.000000 1.000000
outer loop
vertex 15.000001 -11.000000 141.928467
vertex -2.690302 0.956709 141.928467
vertex -2.548038 0.487726 141.928467
endloop
endfacet
facet normal 0.000027 0.000000 1.000000
outer loop
vertex -2.500001 0.000000 141.928467
vertex -2.548037 -0.487726 141.928467
vertex 15.000001 -11.000000 141.928467
endloop
endfacet
facet normal -0.000030 0.000000 1.000000
outer loop
vertex -2.548038 0.487726 141.928467
vertex -2.500001 0.000000 141.928467
vertex 15.000001 -11.000000 141.928467
endloop
endfacet
facet normal -0.881922 -0.471396 0.000000
outer loop
vertex 9.007826 3.731163 111.928467
vertex 9.007826 3.731164 126.999947
vertex 8.106830 5.416810 126.999947
endloop
endfacet
facet normal -0.881922 -0.471396 0.000000
outer loop
vertex 9.007826 3.731163 111.928467
vertex 8.106830 5.416810 126.999947
vertex 8.106830 5.416810 111.928467
endloop
endfacet
facet normal 0.634392 -0.773011 0.000000
outer loop
vertex -5.416799 8.106836 111.928467
vertex -5.416799 8.106836 126.999947
vertex -6.894282 6.894300 126.999947
endloop
endfacet
facet normal 0.634392 -0.773011 -0.000000
outer loop
vertex -5.416799 8.106836 111.928467
vertex -6.894282 6.894300 126.999947
vertex -6.894283 6.894300 111.928467
endloop
endfacet
facet normal -0.290284 0.956940 0.000000
outer loop
vertex 1.902128 -9.562657 111.928467
vertex 1.902128 -9.562657 126.999947
vertex 3.731162 -9.007827 126.999947
endloop
endfacet
facet normal -0.290284 0.956941 -0.000000
outer loop
vertex 1.902128 -9.562657 111.928467
vertex 3.731162 -9.007827 126.999947
vertex 3.731162 -9.007827 111.928467
endloop
endfacet
facet normal -0.995185 -0.098017 0.000000
outer loop
vertex 9.750000 0.000001 111.928467
vertex 9.750000 0.000001 126.999947
vertex 9.562656 1.902131 126.999947
endloop
endfacet
facet normal -0.995185 -0.098017 0.000000
outer loop
vertex 9.750000 0.000001 111.928467
vertex 9.562656 1.902131 126.999947
vertex 9.562656 1.902131 111.928467
endloop
endfacet
facet normal 0.773010 -0.634394 -0.000000
outer loop
vertex -6.894283 6.894300 111.928467
vertex -6.894282 6.894300 126.999947
vertex -8.106822 5.416820 126.999947
endloop
endfacet
facet normal 0.773009 -0.634395 0.000000
outer loop
vertex -6.894283 6.894300 111.928467
vertex -8.106822 5.416820 126.999947
vertex -8.106822 5.416820 111.928467
endloop
endfacet
facet normal 0.956941 0.290283 0.000000
outer loop
vertex -9.562658 -1.902122 111.928467
vertex -9.562658 -1.902122 126.999947
vertex -9.007830 -3.731156 126.999947
endloop
endfacet
facet normal 0.956941 0.290283 0.000000
outer loop
vertex -9.562658 -1.902122 111.928467
vertex -9.007830 -3.731156 126.999947
vertex -9.007830 -3.731156 111.928467
endloop
endfacet
facet normal -0.634394 -0.773010 0.000000
outer loop
vertex 6.894291 6.894291 111.928467
vertex 6.894291 6.894291 126.999947
vertex 5.416810 8.106829 126.999947
endloop
endfacet
facet normal -0.634393 -0.773011 0.000000
outer loop
vertex 6.894291 6.894291 111.928467
vertex 5.416810 8.106829 126.999947
vertex 5.416810 8.106829 111.928467
endloop
endfacet
facet normal 0.471395 -0.881922 0.000000
outer loop
vertex -3.731150 9.007832 111.928467
vertex -3.731150 9.007832 126.999947
vertex -5.416799 8.106836 126.999947
endloop
endfacet
facet normal 0.471396 -0.881922 0.000000
outer loop
vertex -3.731150 9.007832 111.928467
vertex -5.416799 8.106836 126.999947
vertex -5.416799 8.106836 111.928467
endloop
endfacet
facet normal -0.956940 0.290286 0.000000
outer loop
vertex 9.007826 -3.731162 111.928467
vertex 9.007826 -3.731162 126.999947
vertex 9.562657 -1.902130 126.999947
endloop
endfacet
facet normal -0.956940 0.290285 0.000000
outer loop
vertex 9.007826 -3.731162 111.928467
vertex 9.562657 -1.902130 126.999947
vertex 9.562657 -1.902130 111.928467
endloop
endfacet
facet normal -0.098017 -0.995185 0.000000
outer loop
vertex 1.902131 9.562656 111.928467
vertex 1.902131 9.562656 126.999947
vertex 0.000000 9.750000 126.999947
endloop
endfacet
facet normal -0.098017 -0.995185 0.000000
outer loop
vertex 1.902131 9.562656 111.928467
vertex 0.000000 9.750000 126.999947
vertex 0.000000 9.750000 111.928467
endloop
endfacet
facet normal 0.290285 0.956940 0.000000
outer loop
vertex -3.731168 -9.007824 111.928467
vertex -3.731168 -9.007824 126.999947
vertex -1.902135 -9.562655 126.999947
endloop
endfacet
facet normal 0.290284 0.956940 0.000000
outer loop
vertex -3.731168 -9.007824 111.928467
vertex -1.902135 -9.562655 126.999947
vertex -1.902135 -9.562655 111.928467
endloop
endfacet
facet normal 0.098018 0.995185 0.000000
outer loop
vertex -1.902135 -9.562655 111.928467
vertex -1.902135 -9.562655 126.999947
vertex -0.000003 -9.750000 126.999947
endloop
endfacet
facet normal 0.098018 0.995185 0.000000
outer loop
vertex -1.902135 -9.562655 111.928467
vertex -0.000003 -9.750000 126.999947
vertex -0.000003 -9.750000 111.928467
endloop
endfacet
facet normal -0.098017 0.995185 0.000000
outer loop
vertex -0.000003 -9.750000 111.928467
vertex -0.000003 -9.750000 126.999947
vertex 1.902128 -9.562657 126.999947
endloop
endfacet
facet normal -0.098017 0.995185 0.000000
outer loop
vertex -0.000003 -9.750000 111.928467
vertex 1.902128 -9.562657 126.999947
vertex 1.902128 -9.562657 111.928467
endloop
endfacet
facet normal 0.773011 0.634392 0.000000
outer loop
vertex -8.106833 -5.416804 111.928467
vertex -8.106833 -5.416804 126.999947
vertex -6.894296 -6.894287 126.999947
endloop
endfacet
facet normal 0.773011 0.634393 -0.000000
outer loop
vertex -8.106833 -5.416804 111.928467
vertex -6.894296 -6.894287 126.999947
vertex -6.894296 -6.894287 111.928467
endloop
endfacet
facet normal 0.634394 0.773010 0.000000
outer loop
vertex -6.894296 -6.894287 111.928467
vertex -6.894296 -6.894287 126.999947
vertex -5.416815 -8.106826 126.999947
endloop
endfacet
facet normal 0.634393 0.773010 0.000000
outer loop
vertex -6.894296 -6.894287 111.928467
vertex -5.416815 -8.106826 126.999947
vertex -5.416815 -8.106826 111.928467
endloop
endfacet
facet normal -0.634394 0.773010 0.000000
outer loop
vertex 5.416810 -8.106830 111.928467
vertex 5.416810 -8.106830 126.999947
vertex 6.894291 -6.894291 126.999947
endloop
endfacet
facet normal -0.634393 0.773011 0.000000
outer loop
vertex 5.416810 -8.106830 111.928467
vertex 6.894291 -6.894291 126.999947
vertex 6.894291 -6.894291 111.928467
endloop
endfacet
facet normal 0.956940 -0.290285 0.000000
outer loop
vertex -9.007821 3.731174 111.928467
vertex -9.007821 3.731174 126.999947
vertex -9.562654 1.902141 126.999947
endloop
endfacet
facet normal 0.956940 -0.290286 0.000000
outer loop
vertex -9.007821 3.731174 111.928467
vertex -9.562654 1.902141 126.999947
vertex -9.562654 1.902141 111.928467
endloop
endfacet
facet normal -0.290285 -0.956940 0.000000
outer loop
vertex 3.731164 9.007826 111.928467
vertex 3.731164 9.007826 126.999947
vertex 1.902131 9.562656 126.999947
endloop
endfacet
facet normal -0.290284 -0.956940 0.000000
outer loop
vertex 3.731164 9.007826 111.928467
vertex 1.902131 9.562656 126.999947
vertex 1.902131 9.562656 111.928467
endloop
endfacet
facet normal 0.881922 0.471396 0.000000
outer loop
vertex -9.007830 -3.731156 111.928467
vertex -9.007830 -3.731156 126.999947
vertex -8.106833 -5.416804 126.999947
endloop
endfacet
facet normal 0.881921 0.471397 0.000000
outer loop
vertex -9.007830 -3.731156 111.928467
vertex -8.106833 -5.416804 126.999947
vertex -8.106833 -5.416804 111.928467
endloop
endfacet
facet normal -0.956940 -0.290285 0.000000
outer loop
vertex 9.562656 1.902131 111.928467
vertex 9.562656 1.902131 126.999947
vertex 9.007826 3.731164 126.999947
endloop
endfacet
facet normal -0.956940 -0.290285 0.000000
outer loop
vertex 9.562656 1.902131 111.928467
vertex 9.007826 3.731164 126.999947
vertex 9.007826 3.731163 111.928467
endloop
endfacet
facet normal -0.773010 -0.634394 0.000000
outer loop
vertex 8.106830 5.416810 111.928467
vertex 8.106830 5.416810 126.999947
vertex 6.894291 6.894291 126.999947
endloop
endfacet
facet normal -0.773010 -0.634394 0.000000
outer loop
vertex 8.106830 5.416810 111.928467
vertex 6.894291 6.894291 126.999947
vertex 6.894291 6.894291 111.928467
endloop
endfacet
facet normal -0.881922 0.471395 0.000000
outer loop
vertex 8.106830 -5.416810 111.928467
vertex 8.106830 -5.416810 126.999947
vertex 9.007826 -3.731162 126.999947
endloop
endfacet
facet normal -0.881921 0.471397 0.000000
outer loop
vertex 8.106830 -5.416810 111.928467
vertex 9.007826 -3.731162 126.999947
vertex 9.007826 -3.731162 111.928467
endloop
endfacet
facet normal -0.773010 0.634393 0.000000
outer loop
vertex 6.894291 -6.894291 111.928467
vertex 6.894291 -6.894291 126.999947
vertex 8.106830 -5.416810 126.999947
endloop
endfacet
facet normal -0.773010 0.634394 0.000000
outer loop
vertex 6.894291 -6.894291 111.928467
vertex 8.106830 -5.416810 126.999947
vertex 8.106830 -5.416810 111.928467
endloop
endfacet
facet normal 0.995185 -0.098018 0.000000
outer loop
vertex -9.562654 1.902141 111.928467
vertex -9.562654 1.902141 126.999947
vertex -9.750000 0.000009 126.999947
endloop
endfacet
facet normal 0.995185 -0.098018 0.000000
outer loop
vertex -9.562654 1.902141 111.928467
vertex -9.750000 0.000009 126.999947
vertex -9.750000 0.000009 111.928467
endloop
endfacet
facet normal -0.471397 0.881921 0.000000
outer loop
vertex 3.731162 -9.007827 111.928467
vertex 3.731162 -9.007827 126.999947
vertex 5.416810 -8.106830 126.999947
endloop
endfacet
facet normal -0.471397 0.881921 0.000000
outer loop
vertex 3.731162 -9.007827 111.928467
vertex 5.416810 -8.106830 126.999947
vertex 5.416810 -8.106830 111.928467
endloop
endfacet
facet normal -0.995185 0.098016 0.000000
outer loop
vertex 9.562657 -1.902130 111.928467
vertex 9.562657 -1.902130 126.999947
vertex 9.750000 0.000001 126.999947
endloop
endfacet
facet normal -0.995185 0.098017 0.000000
outer loop
vertex 9.562657 -1.902130 111.928467
vertex 9.750000 0.000001 126.999947
vertex 9.750000 0.000001 111.928467
endloop
endfacet
facet normal 0.881921 -0.471397 0.000000
outer loop
vertex -8.106822 5.416820 111.928467
vertex -8.106822 5.416820 126.999947
vertex -9.007821 3.731174 126.999947
endloop
endfacet
facet normal 0.881921 -0.471398 0.000000
outer loop
vertex -8.106822 5.416820 111.928467
vertex -9.007821 3.731174 126.999947
vertex -9.007821 3.731174 111.928467
endloop
endfacet
facet normal 0.098016 -0.995185 0.000000
outer loop
vertex 0.000000 9.750000 111.928467
vertex 0.000000 9.750000 126.999947
vertex -1.902116 9.562659 126.999947
endloop
endfacet
facet normal 0.098016 -0.995185 0.000000
outer loop
vertex 0.000000 9.750000 111.928467
vertex -1.902116 9.562659 126.999947
vertex -1.902116 9.562659 111.928467
endloop
endfacet
facet normal -0.471397 -0.881921 0.000000
outer loop
vertex 5.416810 8.106829 111.928467
vertex 5.416810 8.106829 126.999947
vertex 3.731164 9.007826 126.999947
endloop
endfacet
facet normal -0.471397 -0.881921 0.000000
outer loop
vertex 5.416810 8.106829 111.928467
vertex 3.731164 9.007826 126.999947
vertex 3.731164 9.007826 111.928467
endloop
endfacet
facet normal 0.471397 0.881921 0.000000
outer loop
vertex -5.416815 -8.106826 111.928467
vertex -5.416815 -8.106826 126.999947
vertex -3.731168 -9.007824 126.999947
endloop
endfacet
facet normal 0.471397 0.881921 0.000000
outer loop
vertex -5.416815 -8.106826 111.928467
vertex -3.731168 -9.007824 126.999947
vertex -3.731168 -9.007824 111.928467
endloop
endfacet
facet normal 0.995185 0.098016 0.000000
outer loop
vertex -9.750000 0.000009 111.928467
vertex -9.750000 0.000009 126.999947
vertex -9.562658 -1.902122 126.999947
endloop
endfacet
facet normal 0.995185 0.098016 0.000000
outer loop
vertex -9.750000 0.000009 111.928467
vertex -9.562658 -1.902122 126.999947
vertex -9.562658 -1.902122 111.928467
endloop
endfacet
facet normal 0.290283 -0.956941 0.000000
outer loop
vertex -1.902116 9.562659 111.928467
vertex -1.902116 9.562659 126.999947
vertex -3.731150 9.007832 126.999947
endloop
endfacet
facet normal 0.290283 -0.956941 -0.000000
outer loop
vertex -1.902116 9.562659 111.928467
vertex -3.731150 9.007832 126.999947
vertex -3.731150 9.007832 111.928467
endloop
endfacet
facet normal 0.000009 0.000000 -1.000000
outer loop
vertex -1.902116 9.562659 126.999947
vertex 0.000000 9.750000 126.999947
vertex -5.000001 2.500000 126.999947
endloop
endfacet
facet normal 0.000016 0.000000 -1.000000
outer loop
vertex -1.902116 9.562659 126.999947
vertex -5.000001 2.500000 126.999947
vertex -5.487723 2.451964 126.999947
endloop
endfacet
facet normal 0.000000 0.000000 -1.000000
outer loop
vertex -5.416799 8.106836 126.999947
vertex -3.731150 9.007832 126.999947
vertex -1.902116 9.562659 126.999947
endloop
endfacet
facet normal 0.000000 0.000000 -1.000000
outer loop
vertex -8.106822 5.416820 126.999947
vertex -6.894282 6.894300 126.999947
vertex -5.416799 8.106836 126.999947
endloop
endfacet
facet normal 0.000000 0.000000 -1.000000
outer loop
vertex -9.562654 1.902141 126.999947
vertex -9.007821 3.731174 126.999947
vertex -8.106822 5.416820 126.999947
endloop
endfacet
facet normal 0.000000 0.000000 -1.000000
outer loop
vertex -9.562658 -1.902122 126.999947
vertex -9.750000 0.000009 126.999947
vertex -9.562654 1.902141 126.999947
endloop
endfacet
facet normal 0.000000 0.000000 -1.000000
outer loop
vertex -8.106833 -5.416804 126.999947
vertex -9.007830 -3.731156 126.999947
vertex -9.562658 -1.902122 126.999947
endloop
endfacet
facet normal 0.000043 0.000000 -1.000000
outer loop
vertex -5.416815 -8.106826 126.999947
vertex -6.894296 -6.894287 126.999947
vertex -8.106833 -5.416804 126.999947
endloop
endfacet
facet normal 0.000021 0.000000 -1.000000
outer loop
vertex -1.902135 -9.562655 126.999947
vertex -3.731168 -9.007824 126.999947
vertex -5.416815 -8.106826 126.999947
endloop
endfacet
facet normal 0.000006 0.000000 -1.000000
outer loop
vertex -5.000002 -2.500000 126.999947
vertex -0.000003 -9.750000 126.999947
vertex -1.902135 -9.562655 126.999947
endloop
endfacet
facet normal 0.000037 0.000000 -1.000000
outer loop
vertex -5.487728 -2.451963 126.999947
vertex -5.000002 -2.500000 126.999947
vertex -1.902135 -9.562655 126.999947
endloop
endfacet
facet normal 0.000000 0.000000 -1.000000
outer loop
vertex -1.902135 -9.562655 126.999947
vertex -5.416815 -8.106826 126.999947
vertex -8.106833 -5.416804 126.999947
endloop
endfacet
facet normal 0.000000 0.000000 -1.000000
outer loop
vertex -8.106833 -5.416804 126.999947
vertex -9.562658 -1.902122 126.999947
vertex -9.562654 1.902141 126.999947
endloop
endfacet
facet normal 0.000000 0.000000 -1.000000
outer loop
vertex -9.562654 1.902141 126.999947
vertex -8.106822 5.416820 126.999947
vertex -5.416799 8.106836 126.999947
endloop
endfacet
facet normal -0.000006 0.000000 -1.000000
outer loop
vertex -5.416799 8.106836 126.999947
vertex -1.902116 9.562659 126.999947
vertex -5.487723 2.451964 126.999947
endloop
endfacet
facet normal 0.000001 0.000000 -1.000000
outer loop
vertex -5.416799 8.106836 126.999947
vertex -5.487723 2.451964 126.999947
vertex -5.956706 2.309700 126.999947
endloop
endfacet
facet normal -0.000003 0.000000 -1.000000
outer loop
vertex -1.902135 -9.562655 126.999947
vertex -8.106833 -5.416804 126.999947
vertex -9.562654 1.902141 126.999947
endloop
endfacet
facet normal -0.000043 0.000000 -1.000000
outer loop
vertex -5.956710 -2.309698 126.999947
vertex -5.487728 -2.451963 126.999947
vertex -1.902135 -9.562655 126.999947
endloop
endfacet
facet normal 0.000000 0.000000 -1.000000
outer loop
vertex -6.388928 -2.078673 126.999947
vertex -5.956710 -2.309698 126.999947
vertex -1.902135 -9.562655 126.999947
endloop
endfacet
facet normal 0.000000 0.000000 -1.000000
outer loop
vertex -9.562654 1.902141 126.999947
vertex -5.416799 8.106836 126.999947
vertex -5.956706 2.309700 126.999947
endloop
endfacet
facet normal 0.000000 0.000000 -1.000000
outer loop
vertex -9.562654 1.902141 126.999947
vertex -5.956706 2.309700 126.999947
vertex -6.388924 2.078676 126.999947
endloop
endfacet
facet normal 0.000000 0.000000 -1.000000
outer loop
vertex -6.767769 -1.767766 126.999947
vertex -6.388928 -2.078673 126.999947
vertex -1.902135 -9.562655 126.999947
endloop
endfacet
facet normal 0.000421 0.000000 -1.000000
outer loop
vertex -7.078676 -1.388924 126.999947
vertex -6.767769 -1.767766 126.999947
vertex -1.902135 -9.562655 126.999947
endloop
endfacet
facet normal -0.000008 0.000000 -1.000000
outer loop
vertex -9.562654 1.902141 126.999947
vertex -6.388924 2.078676 126.999947
vertex -6.767766 1.767769 126.999947
endloop
endfacet
facet normal 0.000000 0.000000 -1.000000
outer loop
vertex -9.562654 1.902141 126.999947
vertex -6.767766 1.767769 126.999947
vertex -7.078673 1.388928 126.999947
endloop
endfacet
facet normal 0.000000 0.000000 -1.000000
outer loop
vertex -7.078676 -1.388924 126.999947
vertex -1.902135 -9.562655 126.999947
vertex -9.562654 1.902141 126.999947
endloop
endfacet
facet normal 0.000000 0.000000 -1.000000
outer loop
vertex -7.309700 -0.956707 126.999947
vertex -7.078676 -1.388924 126.999947
vertex -9.562654 1.902141 126.999947
endloop
endfacet
facet normal 0.000006 0.000000 -1.000000
outer loop
vertex -9.562654 1.902141 126.999947
vertex -7.078673 1.388928 126.999947
vertex -7.309699 0.956711 126.999947
endloop
endfacet
facet normal 0.000006 0.000000 -1.000000
outer loop
vertex -9.562654 1.902141 126.999947
vertex -7.309699 0.956711 126.999947
vertex -7.451963 0.487728 126.999947
endloop
endfacet
facet normal 0.000000 0.000000 -1.000000
outer loop
vertex -7.451964 -0.487724 126.999947
vertex -7.309700 -0.956707 126.999947
vertex -9.562654 1.902141 126.999947
endloop
endfacet
facet normal -0.000021 0.000000 -1.000000
outer loop
vertex -9.562654 1.902141 126.999947
vertex -7.451963 0.487728 126.999947
vertex -7.500001 0.000002 126.999947
endloop
endfacet
facet normal 0.000000 0.000000 -1.000000
outer loop
vertex -7.500001 0.000002 126.999947
vertex -7.451964 -0.487724 126.999947
vertex -9.562654 1.902141 126.999947
endloop
endfacet
facet normal 0.000000 1.000000 0.000000
outer loop
vertex -0.000000 15.798516 111.928467
vertex -2.710635 15.798516 111.928467
vertex -2.710635 15.798516 141.928467
endloop
endfacet
facet normal 0.000000 1.000000 0.000000
outer loop
vertex -0.000000 15.798516 111.928467
vertex -2.710635 15.798516 141.928467
vertex 0.000000 15.798516 141.928467
endloop
endfacet
facet normal 0.000000 -1.000000 0.000000
outer loop
vertex -15.000001 -11.000000 111.928467
vertex 0.000000 -11.000000 111.928467
vertex 0.000000 -11.000000 141.928467
endloop
endfacet
facet normal 0.000000 -1.000000 0.000000
outer loop
vertex -15.000001 -11.000000 111.928467
vertex 0.000000 -11.000000 141.928467
vertex -15.000001 -11.000000 141.928467
endloop
endfacet
facet normal 0.000000 1.000000 0.000000
outer loop
vertex 2.710635 15.798516 111.928467
vertex -0.000000 15.798516 111.928467
vertex 0.000000 15.798516 141.928467
endloop
endfacet
facet normal 0.000000 1.000000 0.000000
outer loop
vertex 2.710635 15.798516 111.928467
vertex 0.000000 15.798516 141.928467
vertex 2.710635 15.798516 141.928467
endloop
endfacet
endsolid Exported from Blender-2.91.0
